<svg width="219" height="558" xmlns="http://www.w3.org/2000/svg" xmlns:xlink="http://www.w3.org/1999/xlink">
    <defs>
        <path id="a" d="M0 0h8v8H0z"/>
        <path id="c" d="M0 0h8v8H0z"/>
        <path id="e" d="M0 0h8v8H0z"/>
        <path id="g" d="M0 0h8v8H0z"/>
    </defs>
    <g fill="none" fill-rule="evenodd">
        <g transform="translate(141)">
            <mask id="b" fill="#fff">
                <use xlink:href="#a"/>
            </mask>
            <path d="M4.002-.002C6.212-.002 8 1.788 8 3.997A4 4 0 1 1 4.002-.002" fill="#808A94" mask="url(#b)"/>
        </g>
        <path d="M145.002 11c2.21 0 3.998 1.79 3.998 4s-1.789 4-3.998 4A3.998 3.998 0 0 1 141 15c0-2.21 1.789-4 4.002-4M157 11c2.21 0 4 1.79 4 4s-1.79 4-4 4-4-1.79-4-4 1.79-4 4-4M168 11c2.21 0 4 1.79 4 4s-1.79 4-4 4-4-1.79-4-4 1.79-4 4-4M179.998 11a4.001 4.001 0 1 1 .002 8.002 4.001 4.001 0 0 1-.002-8.002M110 23c2.21 0 4 1.79 4 4s-1.79 4-4 4-4-1.79-4-4 1.79-4 4-4M121 23c2.21 0 4 1.79 4 4s-1.79 4-4 4-4-1.79-4-4 1.79-4 4-4M133 23c2.21 0 4 1.79 4 4s-1.79 4-4 4-4-1.79-4-4 1.79-4 4-4M145.002 23c2.21 0 3.998 1.79 3.998 4s-1.789 4-3.998 4A3.998 3.998 0 0 1 141 27c0-2.21 1.789-4 4.002-4M157 23c2.21 0 4 1.79 4 4s-1.79 4-4 4-4-1.79-4-4 1.79-4 4-4M168 23c2.21 0 4 1.79 4 4s-1.79 4-4 4-4-1.79-4-4 1.79-4 4-4M179.998 23a4.001 4.001 0 1 1 .002 8.002 4.001 4.001 0 0 1-.002-8.002M110 35c2.21 0 4 1.79 4 4s-1.79 4-4 4-4-1.79-4-4 1.79-4 4-4M121 35c2.21 0 4 1.79 4 4s-1.79 4-4 4-4-1.79-4-4 1.79-4 4-4M133 35c2.21 0 4 1.79 4 4s-1.79 4-4 4-4-1.79-4-4 1.79-4 4-4M145.002 35c2.21 0 3.998 1.79 3.998 4s-1.789 4-3.998 4A3.998 3.998 0 0 1 141 39c0-2.21 1.789-4 4.002-4M157 35c2.21 0 4 1.79 4 4s-1.79 4-4 4-4-1.79-4-4 1.79-4 4-4M168 35c2.21 0 4 1.79 4 4s-1.79 4-4 4-4-1.79-4-4 1.79-4 4-4M179.998 35a4.001 4.001 0 1 1 .002 8.002 4.001 4.001 0 0 1-.002-8.002M192 35c2.21 0 4 1.79 4 4s-1.79 4-4 4-4-1.79-4-4 1.79-4 4-4M98 47c2.21 0 4 1.79 4 4s-1.79 4-4 4-4-1.79-4-4 1.79-4 4-4M110 47c2.21 0 4 1.79 4 4s-1.79 4-4 4-4-1.79-4-4 1.79-4 4-4M121 47c2.21 0 4 1.79 4 4s-1.79 4-4 4-4-1.79-4-4 1.79-4 4-4M133 47c2.21 0 4 1.79 4 4s-1.79 4-4 4-4-1.79-4-4 1.79-4 4-4M145.002 47c2.21 0 3.998 1.79 3.998 4s-1.789 4-3.998 4A3.998 3.998 0 0 1 141 51c0-2.21 1.789-4 4.002-4M157 47c2.21 0 4 1.79 4 4s-1.79 4-4 4-4-1.79-4-4 1.79-4 4-4M168 47c2.21 0 4 1.79 4 4s-1.79 4-4 4-4-1.79-4-4 1.79-4 4-4M179.998 47a4.001 4.001 0 1 1 .002 8.002 4.001 4.001 0 0 1-.002-8.002M192 47c2.21 0 4 1.79 4 4s-1.79 4-4 4-4-1.79-4-4 1.79-4 4-4M204 47c2.21 0 4 1.79 4 4s-1.79 4-4 4-4-1.79-4-4 1.79-4 4-4M87 58c2.21 0 4 1.79 4 4s-1.79 4-4 4-4-1.79-4-4 1.79-4 4-4M98 58c2.21 0 4 1.79 4 4s-1.79 4-4 4-4-1.79-4-4 1.79-4 4-4M110 58c2.21 0 4 1.79 4 4s-1.79 4-4 4-4-1.79-4-4 1.79-4 4-4M121 58c2.21 0 4 1.79 4 4s-1.79 4-4 4-4-1.79-4-4 1.79-4 4-4M133 58c2.21 0 4 1.79 4 4s-1.79 4-4 4-4-1.79-4-4 1.79-4 4-4M145.002 58c2.21 0 3.998 1.79 3.998 4s-1.789 4-3.998 4A3.998 3.998 0 0 1 141 62c0-2.21 1.789-4 4.002-4M157 58c2.21 0 4 1.79 4 4s-1.79 4-4 4-4-1.79-4-4 1.79-4 4-4M168 58c2.21 0 4 1.79 4 4s-1.79 4-4 4-4-1.79-4-4 1.79-4 4-4M179.998 58a4.001 4.001 0 1 1 .002 8.002 4.001 4.001 0 0 1-.002-8.002M192 58c2.21 0 4 1.79 4 4s-1.79 4-4 4-4-1.79-4-4 1.79-4 4-4M204 58c2.21 0 4 1.79 4 4s-1.79 4-4 4-4-1.79-4-4 1.79-4 4-4M87 70c2.21 0 4 1.79 4 4s-1.79 4-4 4-4-1.79-4-4 1.79-4 4-4M98 70c2.21 0 4 1.79 4 4s-1.79 4-4 4-4-1.79-4-4 1.79-4 4-4M110 70c2.21 0 4 1.79 4 4s-1.79 4-4 4-4-1.79-4-4 1.79-4 4-4M121 70c2.21 0 4 1.79 4 4s-1.79 4-4 4-4-1.79-4-4 1.79-4 4-4M133 70c2.21 0 4 1.79 4 4s-1.79 4-4 4-4-1.79-4-4 1.79-4 4-4M145.002 70c2.21 0 3.998 1.79 3.998 4s-1.789 4-3.998 4A3.998 3.998 0 0 1 141 74c0-2.21 1.789-4 4.002-4M157 70c2.21 0 4 1.79 4 4s-1.79 4-4 4-4-1.79-4-4 1.79-4 4-4M168 70c2.21 0 4 1.79 4 4s-1.79 4-4 4-4-1.79-4-4 1.79-4 4-4M179.998 70a4.001 4.001 0 1 1 .002 8.002 4.001 4.001 0 0 1-.002-8.002M192 70c2.21 0 4 1.79 4 4s-1.79 4-4 4-4-1.79-4-4 1.79-4 4-4M204 70c2.21 0 4 1.79 4 4s-1.79 4-4 4-4-1.79-4-4 1.79-4 4-4M87 82a4.001 4.001 0 1 1-.002 7.998A4.001 4.001 0 0 1 87 82M98 82a4.001 4.001 0 1 1-.002 7.998A4.001 4.001 0 0 1 98 82M110 82a4.001 4.001 0 1 1-.002 7.998A4.001 4.001 0 0 1 110 82M121 82a4.001 4.001 0 1 1-.002 7.998A4.001 4.001 0 0 1 121 82M133 82a4.001 4.001 0 1 1-.002 7.998A4.001 4.001 0 0 1 133 82M145.002 82a4 4 0 1 1-.004 8 4 4 0 0 1 .004-8M157 82a4.001 4.001 0 1 1-.002 7.998A4.001 4.001 0 0 1 157 82M168 82a4.001 4.001 0 1 1-.002 7.998A4.001 4.001 0 0 1 168 82M179.998 82a4 4 0 1 1 .004 8 4 4 0 0 1-.004-8M192 82a4.001 4.001 0 1 1-.002 7.998A4.001 4.001 0 0 1 192 82M204 82a4.001 4.001 0 1 1-.002 7.998A4.001 4.001 0 0 1 204 82M87 94c2.21 0 4 1.79 4 4s-1.79 4-4 4-4-1.79-4-4 1.79-4 4-4M98 94c2.21 0 4 1.79 4 4s-1.79 4-4 4-4-1.79-4-4 1.79-4 4-4M110 94c2.21 0 4 1.79 4 4s-1.79 4-4 4-4-1.79-4-4 1.79-4 4-4M121 94c2.21 0 4 1.79 4 4s-1.79 4-4 4-4-1.79-4-4 1.79-4 4-4M133 94c2.21 0 4 1.79 4 4s-1.79 4-4 4-4-1.79-4-4 1.79-4 4-4M145.002 94c2.21 0 3.998 1.79 3.998 4s-1.789 4-3.998 4A3.998 3.998 0 0 1 141 98c0-2.21 1.789-4 4.002-4M157 94c2.21 0 4 1.79 4 4s-1.79 4-4 4-4-1.79-4-4 1.79-4 4-4M168 94c2.21 0 4 1.79 4 4s-1.79 4-4 4-4-1.79-4-4 1.79-4 4-4M179.998 94a4.001 4.001 0 1 1 .002 8.002 4.001 4.001 0 0 1-.002-8.002M192 94c2.21 0 4 1.79 4 4s-1.79 4-4 4-4-1.79-4-4 1.79-4 4-4M204 94c2.21 0 4 1.79 4 4s-1.79 4-4 4-4-1.79-4-4 1.79-4 4-4M73.998 105A3.998 3.998 0 0 1 78 109c0 2.21-1.789 4-4.002 4A3.998 3.998 0 0 1 70 109c0-2.21 1.789-4 3.998-4M87 105c2.21 0 4 1.79 4 4s-1.79 4-4 4-4-1.79-4-4 1.79-4 4-4M98 105c2.21 0 4 1.79 4 4s-1.79 4-4 4-4-1.79-4-4 1.79-4 4-4M110 105c2.21 0 4 1.79 4 4s-1.79 4-4 4-4-1.79-4-4 1.79-4 4-4M121 105c2.21 0 4 1.79 4 4s-1.79 4-4 4-4-1.79-4-4 1.79-4 4-4M133 105c2.21 0 4 1.79 4 4s-1.79 4-4 4-4-1.79-4-4 1.79-4 4-4M145.002 105c2.21 0 3.998 1.79 3.998 4s-1.789 4-3.998 4a3.998 3.998 0 0 1-4.002-4c0-2.21 1.789-4 4.002-4M157 105c2.21 0 4 1.79 4 4s-1.79 4-4 4-4-1.79-4-4 1.79-4 4-4M168 105c2.21 0 4 1.79 4 4s-1.79 4-4 4-4-1.79-4-4 1.79-4 4-4M179.998 105a4.001 4.001 0 1 1 .002 8.002 4.001 4.001 0 0 1-.002-8.002M192 105c2.21 0 4 1.79 4 4s-1.79 4-4 4-4-1.79-4-4 1.79-4 4-4M204 105c2.21 0 4 1.79 4 4s-1.79 4-4 4-4-1.79-4-4 1.79-4 4-4M215 105c2.21 0 4 1.79 4 4s-1.79 4-4 4-4-1.79-4-4 1.79-4 4-4M63 117c2.21 0 4 1.79 4 4s-1.79 4-4 4-4-1.79-4-4 1.79-4 4-4M73.998 117A3.998 3.998 0 0 1 78 121c0 2.21-1.789 4-4.002 4A3.998 3.998 0 0 1 70 121c0-2.21 1.789-4 3.998-4M87 117c2.21 0 4 1.79 4 4s-1.79 4-4 4-4-1.79-4-4 1.79-4 4-4M98 117c2.21 0 4 1.79 4 4s-1.79 4-4 4-4-1.79-4-4 1.79-4 4-4M110 117c2.21 0 4 1.79 4 4s-1.79 4-4 4-4-1.79-4-4 1.79-4 4-4M121 117c2.21 0 4 1.79 4 4s-1.79 4-4 4-4-1.79-4-4 1.79-4 4-4M133 117c2.21 0 4 1.79 4 4s-1.79 4-4 4-4-1.79-4-4 1.79-4 4-4M145.002 117c2.21 0 3.998 1.79 3.998 4s-1.789 4-3.998 4a3.998 3.998 0 0 1-4.002-4c0-2.21 1.789-4 4.002-4M157 117c2.21 0 4 1.79 4 4s-1.79 4-4 4-4-1.79-4-4 1.79-4 4-4M168 117c2.21 0 4 1.79 4 4s-1.79 4-4 4-4-1.79-4-4 1.79-4 4-4M179.998 117a4.001 4.001 0 1 1 .002 8.002 4.001 4.001 0 0 1-.002-8.002M192 117c2.21 0 4 1.79 4 4s-1.79 4-4 4-4-1.79-4-4 1.79-4 4-4M204 117c2.21 0 4 1.79 4 4s-1.79 4-4 4-4-1.79-4-4 1.79-4 4-4M63 128a4.001 4.001 0 1 1-.002 8.002A4.001 4.001 0 0 1 63 128M73.998 128a4 4 0 1 1 .002 8.002 4 4 0 0 1-.002-8.002M87 128a4.001 4.001 0 1 1-.002 8.002A4.001 4.001 0 0 1 87 128M98 128a4.001 4.001 0 1 1-.002 8.002A4.001 4.001 0 0 1 98 128M110 128a4.001 4.001 0 1 1-.002 8.002A4.001 4.001 0 0 1 110 128M121 128a4.001 4.001 0 1 1-.002 8.002A4.001 4.001 0 0 1 121 128M133 128a4.001 4.001 0 1 1-.002 8.002A4.001 4.001 0 0 1 133 128M145.002 128a4 4 0 1 1-.004 8 4 4 0 0 1 .004-8M157 128a4.001 4.001 0 1 1-.002 8.002A4.001 4.001 0 0 1 157 128M168 128a4.001 4.001 0 1 1-.002 8.002A4.001 4.001 0 0 1 168 128M63 141c2.21 0 4 1.79 4 4s-1.79 4-4 4-4-1.79-4-4 1.79-4 4-4M73.998 141A3.998 3.998 0 0 1 78 145c0 2.21-1.789 4-4.002 4A3.998 3.998 0 0 1 70 145c0-2.21 1.789-4 3.998-4M87 141c2.21 0 4 1.79 4 4s-1.79 4-4 4-4-1.79-4-4 1.79-4 4-4M98 141c2.21 0 4 1.79 4 4s-1.79 4-4 4-4-1.79-4-4 1.79-4 4-4M110 141c2.21 0 4 1.79 4 4s-1.79 4-4 4-4-1.79-4-4 1.79-4 4-4M121 141c2.21 0 4 1.79 4 4s-1.79 4-4 4-4-1.79-4-4 1.79-4 4-4M133 141c2.21 0 4 1.79 4 4s-1.79 4-4 4-4-1.79-4-4 1.79-4 4-4M145.002 141c2.21 0 3.998 1.79 3.998 4s-1.789 4-3.998 4a3.998 3.998 0 0 1-4.002-4c0-2.21 1.789-4 4.002-4M157 141c2.21 0 4 1.79 4 4s-1.79 4-4 4-4-1.79-4-4 1.79-4 4-4M168 141c2.21 0 4 1.79 4 4s-1.79 4-4 4-4-1.79-4-4 1.79-4 4-4M179.998 141a4.001 4.001 0 1 1 .002 8.002 4.001 4.001 0 0 1-.002-8.002M63 152c2.21 0 4 1.789 4 3.998A3.998 3.998 0 0 1 63 160c-2.21 0-4-1.789-4-4.002 0-2.21 1.79-3.998 4-3.998M73.998 152A3.997 3.997 0 0 1 78 155.998 3.998 3.998 0 0 1 73.998 160 3.997 3.997 0 0 1 70 155.998 3.997 3.997 0 0 1 73.998 152M87 152c2.21 0 4 1.789 4 3.998A3.998 3.998 0 0 1 87 160c-2.21 0-4-1.789-4-4.002 0-2.21 1.79-3.998 4-3.998M98 152c2.21 0 4 1.789 4 3.998A3.998 3.998 0 0 1 98 160c-2.21 0-4-1.789-4-4.002 0-2.21 1.79-3.998 4-3.998M110 152c2.21 0 4 1.789 4 3.998a3.998 3.998 0 0 1-4 4.002c-2.21 0-4-1.789-4-4.002 0-2.21 1.79-3.998 4-3.998M121 152c2.21 0 4 1.789 4 3.998a3.998 3.998 0 0 1-4 4.002c-2.21 0-4-1.789-4-4.002 0-2.21 1.79-3.998 4-3.998M133 152c2.21 0 4 1.789 4 3.998a3.998 3.998 0 0 1-4 4.002c-2.21 0-4-1.789-4-4.002 0-2.21 1.79-3.998 4-3.998M145.002 152a3.997 3.997 0 0 1 3.998 3.998 3.997 3.997 0 0 1-3.998 4.002 3.998 3.998 0 0 1-4.002-4.002 3.997 3.997 0 0 1 4.002-3.998M157 152c2.21 0 4 1.789 4 3.998a3.998 3.998 0 0 1-4 4.002c-2.21 0-4-1.789-4-4.002 0-2.21 1.79-3.998 4-3.998M168 152c2.21 0 4 1.789 4 3.998a3.998 3.998 0 0 1-4 4.002c-2.21 0-4-1.789-4-4.002 0-2.21 1.79-3.998 4-3.998M179.998 152a4 4 0 1 1 .004 8 4 4 0 0 1-.004-8M63 164c2.21 0 4 1.79 4 4s-1.79 4-4 4-4-1.79-4-4 1.79-4 4-4M73.998 164A3.998 3.998 0 0 1 78 168c0 2.21-1.789 4-4.002 4A3.998 3.998 0 0 1 70 168c0-2.21 1.789-4 3.998-4M87 164c2.21 0 4 1.79 4 4s-1.79 4-4 4-4-1.79-4-4 1.79-4 4-4M98 164c2.21 0 4 1.79 4 4s-1.79 4-4 4-4-1.79-4-4 1.79-4 4-4M110 164c2.21 0 4 1.79 4 4s-1.79 4-4 4-4-1.79-4-4 1.79-4 4-4M121 164c2.21 0 4 1.79 4 4s-1.79 4-4 4-4-1.79-4-4 1.79-4 4-4M133 164c2.21 0 4 1.79 4 4s-1.79 4-4 4-4-1.79-4-4 1.79-4 4-4M145.002 164c2.21 0 3.998 1.79 3.998 4s-1.789 4-3.998 4a3.998 3.998 0 0 1-4.002-4c0-2.21 1.789-4 4.002-4M157 164c2.21 0 4 1.79 4 4s-1.79 4-4 4-4-1.79-4-4 1.79-4 4-4M168 164c2.21 0 4 1.79 4 4s-1.79 4-4 4-4-1.79-4-4 1.79-4 4-4M179.998 164a4.001 4.001 0 1 1 .002 8.002 4.001 4.001 0 0 1-.002-8.002M51 175c2.21 0 4 1.79 4 4s-1.79 4-4 4-4-1.79-4-4 1.79-4 4-4M63 175c2.21 0 4 1.79 4 4s-1.79 4-4 4-4-1.79-4-4 1.79-4 4-4M73.998 175A3.998 3.998 0 0 1 78 179c0 2.21-1.789 4-4.002 4A3.998 3.998 0 0 1 70 179c0-2.21 1.789-4 3.998-4M87 175c2.21 0 4 1.79 4 4s-1.79 4-4 4-4-1.79-4-4 1.79-4 4-4M98 175c2.21 0 4 1.79 4 4s-1.79 4-4 4-4-1.79-4-4 1.79-4 4-4M110 175c2.21 0 4 1.79 4 4s-1.79 4-4 4-4-1.79-4-4 1.79-4 4-4M121 175c2.21 0 4 1.79 4 4s-1.79 4-4 4-4-1.79-4-4 1.79-4 4-4M133 175c2.21 0 4 1.79 4 4s-1.79 4-4 4-4-1.79-4-4 1.79-4 4-4M145.002 175c2.21 0 3.998 1.79 3.998 4s-1.789 4-3.998 4a3.998 3.998 0 0 1-4.002-4c0-2.21 1.789-4 4.002-4M157 175c2.21 0 4 1.79 4 4s-1.79 4-4 4-4-1.79-4-4 1.79-4 4-4M168 175c2.21 0 4 1.79 4 4s-1.79 4-4 4-4-1.79-4-4 1.79-4 4-4M179.998 175a4.001 4.001 0 1 1 .002 8.002 4.001 4.001 0 0 1-.002-8.002M63 187c2.21 0 4 1.79 4 4s-1.79 4-4 4-4-1.79-4-4 1.79-4 4-4M73.998 187A3.998 3.998 0 0 1 78 191c0 2.21-1.789 4-4.002 4A3.998 3.998 0 0 1 70 191c0-2.21 1.789-4 3.998-4M87 187c2.21 0 4 1.79 4 4s-1.79 4-4 4-4-1.79-4-4 1.79-4 4-4M98 187c2.21 0 4 1.79 4 4s-1.79 4-4 4-4-1.79-4-4 1.79-4 4-4M110 187c2.21 0 4 1.79 4 4s-1.79 4-4 4-4-1.79-4-4 1.79-4 4-4M121 187c2.21 0 4 1.79 4 4s-1.79 4-4 4-4-1.79-4-4 1.79-4 4-4M133 187c2.21 0 4 1.79 4 4s-1.79 4-4 4-4-1.79-4-4 1.79-4 4-4M145.002 187c2.21 0 3.998 1.79 3.998 4s-1.789 4-3.998 4a3.998 3.998 0 0 1-4.002-4c0-2.21 1.789-4 4.002-4M157 187c2.21 0 4 1.79 4 4s-1.79 4-4 4-4-1.79-4-4 1.79-4 4-4M168 187c2.21 0 4 1.79 4 4s-1.79 4-4 4-4-1.79-4-4 1.79-4 4-4M179.998 187a4.001 4.001 0 1 1 .002 8.002 4.001 4.001 0 0 1-.002-8.002M51 199c2.21 0 4 1.79 4 4s-1.79 4-4 4-4-1.79-4-4 1.79-4 4-4M63 199c2.21 0 4 1.79 4 4s-1.79 4-4 4-4-1.79-4-4 1.79-4 4-4M73.998 199A3.998 3.998 0 0 1 78 203c0 2.21-1.789 4-4.002 4A3.998 3.998 0 0 1 70 203c0-2.21 1.789-4 3.998-4M87 199c2.21 0 4 1.79 4 4s-1.79 4-4 4-4-1.79-4-4 1.79-4 4-4M98 199c2.21 0 4 1.79 4 4s-1.79 4-4 4-4-1.79-4-4 1.79-4 4-4M110 199c2.21 0 4 1.79 4 4s-1.79 4-4 4-4-1.79-4-4 1.79-4 4-4M121 199c2.21 0 4 1.79 4 4s-1.79 4-4 4-4-1.79-4-4 1.79-4 4-4M133 199c2.21 0 4 1.79 4 4s-1.79 4-4 4-4-1.79-4-4 1.79-4 4-4M145.002 199c2.21 0 3.998 1.79 3.998 4s-1.789 4-3.998 4a3.998 3.998 0 0 1-4.002-4c0-2.21 1.789-4 4.002-4M168 199c2.21 0 4 1.79 4 4s-1.79 4-4 4-4-1.79-4-4 1.79-4 4-4M40.002 211a4 4 0 1 1-.004 8 4 4 0 0 1 .004-8M51 211a4.001 4.001 0 1 1-.002 8.002A4.001 4.001 0 0 1 51 211M63 211a4.001 4.001 0 1 1-.002 8.002A4.001 4.001 0 0 1 63 211M73.998 211a4 4 0 1 1 .002 8.002 4 4 0 0 1-.002-8.002M87 211a4.001 4.001 0 1 1-.002 8.002A4.001 4.001 0 0 1 87 211M98 211a4.001 4.001 0 1 1-.002 8.002A4.001 4.001 0 0 1 98 211M110 211a4.001 4.001 0 1 1-.002 8.002A4.001 4.001 0 0 1 110 211M121 211a4.001 4.001 0 1 1-.002 8.002A4.001 4.001 0 0 1 121 211M133 211a4.001 4.001 0 1 1-.002 8.002A4.001 4.001 0 0 1 133 211M145.002 211a4 4 0 1 1-.004 8 4 4 0 0 1 .004-8M157 211a4.001 4.001 0 1 1-.002 8.002A4.001 4.001 0 0 1 157 211M28 222c2.21 0 4 1.79 4 4s-1.79 4-4 4-4-1.79-4-4 1.79-4 4-4M40.002 222c2.21 0 3.998 1.79 3.998 4s-1.789 4-3.998 4a4.001 4.001 0 1 1 0-8M51 222c2.21 0 4 1.79 4 4s-1.79 4-4 4-4-1.79-4-4 1.79-4 4-4M63 222c2.21 0 4 1.79 4 4s-1.79 4-4 4-4-1.79-4-4 1.79-4 4-4M73.998 222A3.998 3.998 0 0 1 78 226c0 2.21-1.789 4-4.002 4A3.998 3.998 0 0 1 70 226c0-2.21 1.789-4 3.998-4M87 222c2.21 0 4 1.79 4 4s-1.79 4-4 4-4-1.79-4-4 1.79-4 4-4M98 222c2.21 0 4 1.79 4 4s-1.79 4-4 4-4-1.79-4-4 1.79-4 4-4M110 222c2.21 0 4 1.79 4 4s-1.79 4-4 4-4-1.79-4-4 1.79-4 4-4M121 222c2.21 0 4 1.79 4 4s-1.79 4-4 4-4-1.79-4-4 1.79-4 4-4M133 222c2.21 0 4 1.79 4 4s-1.79 4-4 4-4-1.79-4-4 1.79-4 4-4M145.002 222c2.21 0 3.998 1.79 3.998 4s-1.789 4-3.998 4a3.998 3.998 0 0 1-4.002-4c0-2.21 1.789-4 4.002-4M28 234c2.21 0 4 1.789 4 3.998A3.998 3.998 0 0 1 28 242c-2.21 0-4-1.789-4-4.002 0-2.21 1.79-3.998 4-3.998M40.002 234A3.997 3.997 0 0 1 44 237.998 4 4 0 1 1 40.002 234M51 234c2.21 0 4 1.789 4 3.998A3.998 3.998 0 0 1 51 242c-2.21 0-4-1.789-4-4.002 0-2.21 1.79-3.998 4-3.998M63 234c2.21 0 4 1.789 4 3.998A3.998 3.998 0 0 1 63 242c-2.21 0-4-1.789-4-4.002 0-2.21 1.79-3.998 4-3.998M73.998 234A3.997 3.997 0 0 1 78 237.998 3.998 3.998 0 0 1 73.998 242 3.997 3.997 0 0 1 70 237.998 3.997 3.997 0 0 1 73.998 234M87 234c2.21 0 4 1.789 4 3.998A3.998 3.998 0 0 1 87 242c-2.21 0-4-1.789-4-4.002 0-2.21 1.79-3.998 4-3.998M98 234c2.21 0 4 1.789 4 3.998A3.998 3.998 0 0 1 98 242c-2.21 0-4-1.789-4-4.002 0-2.21 1.79-3.998 4-3.998M110 234c2.21 0 4 1.789 4 3.998a3.998 3.998 0 0 1-4 4.002c-2.21 0-4-1.789-4-4.002 0-2.21 1.79-3.998 4-3.998M121 234c2.21 0 4 1.789 4 3.998a3.998 3.998 0 0 1-4 4.002c-2.21 0-4-1.789-4-4.002 0-2.21 1.79-3.998 4-3.998M133 234c2.21 0 4 1.789 4 3.998a3.998 3.998 0 0 1-4 4.002c-2.21 0-4-1.789-4-4.002 0-2.21 1.79-3.998 4-3.998M28 245c2.21 0 4 1.79 4 4s-1.79 4-4 4-4-1.79-4-4 1.79-4 4-4M40.002 245c2.21 0 3.998 1.79 3.998 4s-1.789 4-3.998 4a4.001 4.001 0 1 1 0-8M51 245c2.21 0 4 1.79 4 4s-1.79 4-4 4-4-1.79-4-4 1.79-4 4-4M63 245c2.21 0 4 1.79 4 4s-1.79 4-4 4-4-1.79-4-4 1.79-4 4-4M73.998 245A3.998 3.998 0 0 1 78 249c0 2.21-1.789 4-4.002 4A3.998 3.998 0 0 1 70 249c0-2.21 1.789-4 3.998-4M87 245c2.21 0 4 1.79 4 4s-1.79 4-4 4-4-1.79-4-4 1.79-4 4-4M98 245c2.21 0 4 1.79 4 4s-1.79 4-4 4-4-1.79-4-4 1.79-4 4-4M110 245c2.21 0 4 1.79 4 4s-1.79 4-4 4-4-1.79-4-4 1.79-4 4-4M121 245c2.21 0 4 1.79 4 4s-1.79 4-4 4-4-1.79-4-4 1.79-4 4-4M133 245c2.21 0 4 1.79 4 4s-1.79 4-4 4-4-1.79-4-4 1.79-4 4-4M28 258c2.21 0 4 1.79 4 4s-1.79 4-4 4-4-1.79-4-4 1.79-4 4-4M40.002 258c2.21 0 3.998 1.79 3.998 4s-1.789 4-3.998 4a4.001 4.001 0 1 1 0-8M51 258c2.21 0 4 1.79 4 4s-1.79 4-4 4-4-1.79-4-4 1.79-4 4-4M63 258c2.21 0 4 1.79 4 4s-1.79 4-4 4-4-1.79-4-4 1.79-4 4-4M73.998 258A3.998 3.998 0 0 1 78 262c0 2.21-1.789 4-4.002 4A3.998 3.998 0 0 1 70 262c0-2.21 1.789-4 3.998-4M87 258c2.21 0 4 1.79 4 4s-1.79 4-4 4-4-1.79-4-4 1.79-4 4-4M98 258c2.21 0 4 1.79 4 4s-1.79 4-4 4-4-1.79-4-4 1.79-4 4-4M110 258c2.21 0 4 1.79 4 4s-1.79 4-4 4-4-1.79-4-4 1.79-4 4-4M121 258c2.21 0 4 1.79 4 4s-1.79 4-4 4-4-1.79-4-4 1.79-4 4-4M133 258c2.21 0 4 1.79 4 4s-1.79 4-4 4-4-1.79-4-4 1.79-4 4-4M28 269c2.21 0 4 1.79 4 4s-1.79 4-4 4-4-1.79-4-4 1.79-4 4-4M40.002 269c2.21 0 3.998 1.79 3.998 4s-1.789 4-3.998 4a4.001 4.001 0 1 1 0-8M51 269c2.21 0 4 1.79 4 4s-1.79 4-4 4-4-1.79-4-4 1.79-4 4-4M63 269c2.21 0 4 1.79 4 4s-1.79 4-4 4-4-1.79-4-4 1.79-4 4-4M73.998 269A3.998 3.998 0 0 1 78 273c0 2.21-1.789 4-4.002 4A3.998 3.998 0 0 1 70 273c0-2.21 1.789-4 3.998-4M87 269c2.21 0 4 1.79 4 4s-1.79 4-4 4-4-1.79-4-4 1.79-4 4-4M98 269c2.21 0 4 1.79 4 4s-1.79 4-4 4-4-1.79-4-4 1.79-4 4-4M110 269c2.21 0 4 1.79 4 4s-1.79 4-4 4-4-1.79-4-4 1.79-4 4-4M121 269c2.21 0 4 1.79 4 4s-1.79 4-4 4-4-1.79-4-4 1.79-4 4-4M28 281a4.001 4.001 0 1 1-.002 8.002A4.001 4.001 0 0 1 28 281M40.002 281a4 4 0 1 1-.004 8 4 4 0 0 1 .004-8M51 281a4.001 4.001 0 1 1-.002 8.002A4.001 4.001 0 0 1 51 281M63 281a4.001 4.001 0 1 1-.002 8.002A4.001 4.001 0 0 1 63 281M73.998 281a4 4 0 1 1 .002 8.002 4 4 0 0 1-.002-8.002M87 281a4.001 4.001 0 1 1-.002 8.002A4.001 4.001 0 0 1 87 281M98 281a4.001 4.001 0 1 1-.002 8.002A4.001 4.001 0 0 1 98 281M110 281a4.001 4.001 0 1 1-.002 8.002A4.001 4.001 0 0 1 110 281M121 281a4.001 4.001 0 1 1-.002 8.002A4.001 4.001 0 0 1 121 281M28 292c2.21 0 4 1.79 4 4s-1.79 4-4 4-4-1.79-4-4 1.79-4 4-4M40.002 292c2.21 0 3.998 1.79 3.998 4s-1.789 4-3.998 4a4.001 4.001 0 1 1 0-8M51 292c2.21 0 4 1.79 4 4s-1.79 4-4 4-4-1.79-4-4 1.79-4 4-4M63 292c2.21 0 4 1.79 4 4s-1.79 4-4 4-4-1.79-4-4 1.79-4 4-4M73.998 292A3.998 3.998 0 0 1 78 296c0 2.21-1.789 4-4.002 4A3.998 3.998 0 0 1 70 296c0-2.21 1.789-4 3.998-4M87 292c2.21 0 4 1.79 4 4s-1.79 4-4 4-4-1.79-4-4 1.79-4 4-4M98 292c2.21 0 4 1.79 4 4s-1.79 4-4 4-4-1.79-4-4 1.79-4 4-4M110 292c2.21 0 4 1.79 4 4s-1.79 4-4 4-4-1.79-4-4 1.79-4 4-4M121 292c2.21 0 4 1.79 4 4s-1.79 4-4 4-4-1.79-4-4 1.79-4 4-4M40.002 305c2.21 0 3.998 1.79 3.998 4s-1.789 4-3.998 4a4.001 4.001 0 1 1 0-8M51 305c2.21 0 4 1.79 4 4s-1.79 4-4 4-4-1.79-4-4 1.79-4 4-4M63 305c2.21 0 4 1.79 4 4s-1.79 4-4 4-4-1.79-4-4 1.79-4 4-4M73.998 305A3.998 3.998 0 0 1 78 309c0 2.21-1.789 4-4.002 4A3.998 3.998 0 0 1 70 309c0-2.21 1.789-4 3.998-4M87 305c2.21 0 4 1.79 4 4s-1.79 4-4 4-4-1.79-4-4 1.79-4 4-4M98 305c2.21 0 4 1.79 4 4s-1.79 4-4 4-4-1.79-4-4 1.79-4 4-4M110 305c2.21 0 4 1.79 4 4s-1.79 4-4 4-4-1.79-4-4 1.79-4 4-4M121 305c2.21 0 4 1.79 4 4s-1.79 4-4 4-4-1.79-4-4 1.79-4 4-4M40.002 316A3.997 3.997 0 0 1 44 320.002 4 4 0 1 1 40.002 316M51 316c2.21 0 4 1.789 4 4.002 0 2.21-1.79 3.998-4 3.998s-4-1.789-4-3.998A3.998 3.998 0 0 1 51 316M63 316c2.21 0 4 1.789 4 4.002 0 2.21-1.79 3.998-4 3.998s-4-1.789-4-3.998A3.998 3.998 0 0 1 63 316M73.998 316A3.998 3.998 0 0 1 78 320.002 3.997 3.997 0 0 1 73.998 324 3.997 3.997 0 0 1 70 320.002 3.997 3.997 0 0 1 73.998 316M87 316c2.21 0 4 1.789 4 4.002 0 2.21-1.79 3.998-4 3.998s-4-1.789-4-3.998A3.998 3.998 0 0 1 87 316M98 316c2.21 0 4 1.789 4 4.002 0 2.21-1.79 3.998-4 3.998s-4-1.789-4-3.998A3.998 3.998 0 0 1 98 316M110 316c2.21 0 4 1.789 4 4.002 0 2.21-1.79 3.998-4 3.998s-4-1.789-4-3.998a3.998 3.998 0 0 1 4-4.002M121 316c2.21 0 4 1.789 4 4.002 0 2.21-1.79 3.998-4 3.998s-4-1.789-4-3.998a3.998 3.998 0 0 1 4-4.002M28 328c2.21 0 4 1.79 4 4s-1.79 4-4 4-4-1.79-4-4 1.79-4 4-4M40.002 328c2.21 0 3.998 1.79 3.998 4s-1.789 4-3.998 4a4.001 4.001 0 1 1 0-8M51 328c2.21 0 4 1.79 4 4s-1.79 4-4 4-4-1.79-4-4 1.79-4 4-4M63 328c2.21 0 4 1.79 4 4s-1.79 4-4 4-4-1.79-4-4 1.79-4 4-4M73.998 328A3.998 3.998 0 0 1 78 332c0 2.21-1.789 4-4.002 4A3.998 3.998 0 0 1 70 332c0-2.21 1.789-4 3.998-4M87 328c2.21 0 4 1.79 4 4s-1.79 4-4 4-4-1.79-4-4 1.79-4 4-4M98 328c2.21 0 4 1.79 4 4s-1.79 4-4 4-4-1.79-4-4 1.79-4 4-4M121 328c2.21 0 4 1.79 4 4s-1.79 4-4 4-4-1.79-4-4 1.79-4 4-4M40.002 339a4 4 0 1 1-.004 8 4 4 0 0 1 .004-8M51 339a4.001 4.001 0 1 1-.002 7.998A4.001 4.001 0 0 1 51 339M63 339a4.001 4.001 0 1 1-.002 7.998A4.001 4.001 0 0 1 63 339M73.998 339a4 4 0 1 1 .002 7.998 4 4 0 0 1-.002-7.998M87 339a4.001 4.001 0 1 1-.002 7.998A4.001 4.001 0 0 1 87 339M98 339a4.001 4.001 0 1 1-.002 7.998A4.001 4.001 0 0 1 98 339M110 339a4.001 4.001 0 1 1-.002 7.998A4.001 4.001 0 0 1 110 339M121 339a4.001 4.001 0 1 1-.002 7.998A4.001 4.001 0 0 1 121 339M133 339a4.001 4.001 0 1 1-.002 7.998A4.001 4.001 0 0 1 133 339M145.002 339a4 4 0 1 1-.004 8 4 4 0 0 1 .004-8M40.002 351c2.21 0 3.998 1.79 3.998 4s-1.789 4-3.998 4a4.001 4.001 0 1 1 0-8M51 351c2.21 0 4 1.79 4 4s-1.79 4-4 4-4-1.79-4-4 1.79-4 4-4M63 351c2.21 0 4 1.79 4 4s-1.79 4-4 4-4-1.79-4-4 1.79-4 4-4M73.998 351A3.998 3.998 0 0 1 78 355c0 2.21-1.789 4-4.002 4A3.998 3.998 0 0 1 70 355c0-2.21 1.789-4 3.998-4M87 351c2.21 0 4 1.79 4 4s-1.79 4-4 4-4-1.79-4-4 1.79-4 4-4M98 351c2.21 0 4 1.79 4 4s-1.79 4-4 4-4-1.79-4-4 1.79-4 4-4M110 351c2.21 0 4 1.79 4 4s-1.79 4-4 4-4-1.79-4-4 1.79-4 4-4M121 351c2.21 0 4 1.79 4 4s-1.79 4-4 4-4-1.79-4-4 1.79-4 4-4M133 351c2.21 0 4 1.79 4 4s-1.79 4-4 4-4-1.79-4-4 1.79-4 4-4M145.002 351c2.21 0 3.998 1.79 3.998 4s-1.789 4-3.998 4a3.998 3.998 0 0 1-4.002-4c0-2.21 1.789-4 4.002-4M157 351c2.21 0 4 1.79 4 4s-1.79 4-4 4-4-1.79-4-4 1.79-4 4-4M40.002 363c2.21 0 3.998 1.79 3.998 4s-1.789 4-3.998 4a4.001 4.001 0 1 1 0-8M51 363c2.21 0 4 1.79 4 4s-1.79 4-4 4-4-1.79-4-4 1.79-4 4-4M63 363c2.21 0 4 1.79 4 4s-1.79 4-4 4-4-1.79-4-4 1.79-4 4-4M73.998 363A3.998 3.998 0 0 1 78 367c0 2.21-1.789 4-4.002 4A3.998 3.998 0 0 1 70 367c0-2.21 1.789-4 3.998-4M87 363c2.21 0 4 1.79 4 4s-1.79 4-4 4-4-1.79-4-4 1.79-4 4-4M98 363c2.21 0 4 1.79 4 4s-1.79 4-4 4-4-1.79-4-4 1.79-4 4-4M110 363c2.21 0 4 1.79 4 4s-1.79 4-4 4-4-1.79-4-4 1.79-4 4-4M121 363c2.21 0 4 1.79 4 4s-1.79 4-4 4-4-1.79-4-4 1.79-4 4-4M133 363c2.21 0 4 1.79 4 4s-1.79 4-4 4-4-1.79-4-4 1.79-4 4-4M145.002 363c2.21 0 3.998 1.79 3.998 4s-1.789 4-3.998 4a3.998 3.998 0 0 1-4.002-4c0-2.21 1.789-4 4.002-4M157 363c2.21 0 4 1.79 4 4s-1.79 4-4 4-4-1.79-4-4 1.79-4 4-4M168 363c2.21 0 4 1.79 4 4s-1.79 4-4 4-4-1.79-4-4 1.79-4 4-4M28 375c2.21 0 4 1.79 4 4s-1.79 4-4 4-4-1.79-4-4 1.79-4 4-4M40.002 375c2.21 0 3.998 1.79 3.998 4s-1.789 4-3.998 4a4.001 4.001 0 1 1 0-8M51 375c2.21 0 4 1.79 4 4s-1.79 4-4 4-4-1.79-4-4 1.79-4 4-4M63 375c2.21 0 4 1.79 4 4s-1.79 4-4 4-4-1.79-4-4 1.79-4 4-4M73.998 375A3.998 3.998 0 0 1 78 379c0 2.21-1.789 4-4.002 4A3.998 3.998 0 0 1 70 379c0-2.21 1.789-4 3.998-4M87 375c2.21 0 4 1.79 4 4s-1.79 4-4 4-4-1.79-4-4 1.79-4 4-4M98 375c2.21 0 4 1.79 4 4s-1.79 4-4 4-4-1.79-4-4 1.79-4 4-4M110 375c2.21 0 4 1.79 4 4s-1.79 4-4 4-4-1.79-4-4 1.79-4 4-4M121 375c2.21 0 4 1.79 4 4s-1.79 4-4 4-4-1.79-4-4 1.79-4 4-4M133 375c2.21 0 4 1.79 4 4s-1.79 4-4 4-4-1.79-4-4 1.79-4 4-4M145.002 375c2.21 0 3.998 1.79 3.998 4s-1.789 4-3.998 4a3.998 3.998 0 0 1-4.002-4c0-2.21 1.789-4 4.002-4M28 386c2.21 0 4 1.789 4 4.002 0 2.21-1.79 3.998-4 3.998s-4-1.789-4-3.998A3.998 3.998 0 0 1 28 386M40.002 386A3.997 3.997 0 0 1 44 390.002 4 4 0 1 1 40.002 386M51 386c2.21 0 4 1.789 4 4.002 0 2.21-1.79 3.998-4 3.998s-4-1.789-4-3.998A3.998 3.998 0 0 1 51 386M63 386c2.21 0 4 1.789 4 4.002 0 2.21-1.79 3.998-4 3.998s-4-1.789-4-3.998A3.998 3.998 0 0 1 63 386M73.998 386A3.998 3.998 0 0 1 78 390.002 3.997 3.997 0 0 1 73.998 394 3.997 3.997 0 0 1 70 390.002 3.997 3.997 0 0 1 73.998 386M87 386c2.21 0 4 1.789 4 4.002 0 2.21-1.79 3.998-4 3.998s-4-1.789-4-3.998A3.998 3.998 0 0 1 87 386M98 386c2.21 0 4 1.789 4 4.002 0 2.21-1.79 3.998-4 3.998s-4-1.789-4-3.998A3.998 3.998 0 0 1 98 386M110 386c2.21 0 4 1.789 4 4.002 0 2.21-1.79 3.998-4 3.998s-4-1.789-4-3.998a3.998 3.998 0 0 1 4-4.002M121 386c2.21 0 4 1.789 4 4.002 0 2.21-1.79 3.998-4 3.998s-4-1.789-4-3.998a3.998 3.998 0 0 1 4-4.002M133 386c2.21 0 4 1.789 4 4.002 0 2.21-1.79 3.998-4 3.998s-4-1.789-4-3.998a3.998 3.998 0 0 1 4-4.002M145.002 386a3.997 3.997 0 0 1 3.998 4.002 3.997 3.997 0 0 1-3.998 3.998 3.997 3.997 0 0 1-4.002-3.998 3.998 3.998 0 0 1 4.002-4.002M157 386c2.21 0 4 1.789 4 4.002 0 2.21-1.79 3.998-4 3.998s-4-1.789-4-3.998a3.998 3.998 0 0 1 4-4.002M28 398c2.21 0 4 1.79 4 4s-1.79 4-4 4-4-1.79-4-4 1.79-4 4-4M40.002 398c2.21 0 3.998 1.79 3.998 4s-1.789 4-3.998 4a4.001 4.001 0 1 1 0-8M51 398c2.21 0 4 1.79 4 4s-1.79 4-4 4-4-1.79-4-4 1.79-4 4-4M63 398c2.21 0 4 1.79 4 4s-1.79 4-4 4-4-1.79-4-4 1.79-4 4-4M73.998 398A3.998 3.998 0 0 1 78 402c0 2.21-1.789 4-4.002 4A3.998 3.998 0 0 1 70 402c0-2.21 1.789-4 3.998-4M87 398c2.21 0 4 1.79 4 4s-1.79 4-4 4-4-1.79-4-4 1.79-4 4-4M98 398c2.21 0 4 1.79 4 4s-1.79 4-4 4-4-1.79-4-4 1.79-4 4-4M110 398c2.21 0 4 1.79 4 4s-1.79 4-4 4-4-1.79-4-4 1.79-4 4-4M121 398c2.21 0 4 1.79 4 4s-1.79 4-4 4-4-1.79-4-4 1.79-4 4-4M133 398c2.21 0 4 1.79 4 4s-1.79 4-4 4-4-1.79-4-4 1.79-4 4-4M145.002 398c2.21 0 3.998 1.79 3.998 4s-1.789 4-3.998 4a3.998 3.998 0 0 1-4.002-4c0-2.21 1.789-4 4.002-4M4 409c2.21 0 4 1.79 4 4s-1.79 4-4 4-4-1.79-4-4 1.79-4 4-4M16 409c2.21 0 4 1.79 4 4s-1.79 4-4 4-4-1.79-4-4 1.79-4 4-4M28 409c2.21 0 4 1.79 4 4s-1.79 4-4 4-4-1.79-4-4 1.79-4 4-4M40.002 409c2.21 0 3.998 1.79 3.998 4s-1.789 4-3.998 4a4.001 4.001 0 1 1 0-8M51 409c2.21 0 4 1.79 4 4s-1.79 4-4 4-4-1.79-4-4 1.79-4 4-4M63 409c2.21 0 4 1.79 4 4s-1.79 4-4 4-4-1.79-4-4 1.79-4 4-4M73.998 409A3.998 3.998 0 0 1 78 413c0 2.21-1.789 4-4.002 4A3.998 3.998 0 0 1 70 413c0-2.21 1.789-4 3.998-4M87 409c2.21 0 4 1.79 4 4s-1.79 4-4 4-4-1.79-4-4 1.79-4 4-4M98 409c2.21 0 4 1.79 4 4s-1.79 4-4 4-4-1.79-4-4 1.79-4 4-4M110 409c2.21 0 4 1.79 4 4s-1.79 4-4 4-4-1.79-4-4 1.79-4 4-4M121 409c2.21 0 4 1.79 4 4s-1.79 4-4 4-4-1.79-4-4 1.79-4 4-4M133 409c2.21 0 4 1.79 4 4s-1.79 4-4 4-4-1.79-4-4 1.79-4 4-4M16 422a4.001 4.001 0 1 1-.002 7.998A4.001 4.001 0 0 1 16 422M28 422a4.001 4.001 0 1 1-.002 7.998A4.001 4.001 0 0 1 28 422M40.002 422a4 4 0 1 1-.004 8 4 4 0 0 1 .004-8M51 422a4.001 4.001 0 1 1-.002 7.998A4.001 4.001 0 0 1 51 422M63 422a4.001 4.001 0 1 1-.002 7.998A4.001 4.001 0 0 1 63 422M73.998 422a4 4 0 1 1 .002 7.998 4 4 0 0 1-.002-7.998M87 422a4.001 4.001 0 1 1-.002 7.998A4.001 4.001 0 0 1 87 422M98 422a4.001 4.001 0 1 1-.002 7.998A4.001 4.001 0 0 1 98 422M110 422a4.001 4.001 0 1 1-.002 7.998A4.001 4.001 0 0 1 110 422M121 422a4.001 4.001 0 1 1-.002 7.998A4.001 4.001 0 0 1 121 422M16 433c2.21 0 4 1.79 4 4s-1.79 4-4 4-4-1.79-4-4 1.79-4 4-4M28 433c2.21 0 4 1.79 4 4s-1.79 4-4 4-4-1.79-4-4 1.79-4 4-4M40.002 433c2.21 0 3.998 1.79 3.998 4s-1.789 4-3.998 4a4.001 4.001 0 1 1 0-8M51 433c2.21 0 4 1.79 4 4s-1.79 4-4 4-4-1.79-4-4 1.79-4 4-4M63 433c2.21 0 4 1.79 4 4s-1.79 4-4 4-4-1.79-4-4 1.79-4 4-4M73.998 433A3.998 3.998 0 0 1 78 437c0 2.21-1.789 4-4.002 4A3.998 3.998 0 0 1 70 437c0-2.21 1.789-4 3.998-4M87 433c2.21 0 4 1.79 4 4s-1.79 4-4 4-4-1.79-4-4 1.79-4 4-4M98 433c2.21 0 4 1.79 4 4s-1.79 4-4 4-4-1.79-4-4 1.79-4 4-4M110 433c2.21 0 4 1.79 4 4s-1.79 4-4 4-4-1.79-4-4 1.79-4 4-4M121 433c2.21 0 4 1.79 4 4s-1.79 4-4 4-4-1.79-4-4 1.79-4 4-4M16 445c2.21 0 4 1.79 4 4s-1.79 4-4 4-4-1.79-4-4 1.79-4 4-4M28 445c2.21 0 4 1.79 4 4s-1.79 4-4 4-4-1.79-4-4 1.79-4 4-4M40.002 445c2.21 0 3.998 1.79 3.998 4s-1.789 4-3.998 4a4.001 4.001 0 1 1 0-8M51 445c2.21 0 4 1.79 4 4s-1.79 4-4 4-4-1.79-4-4 1.79-4 4-4M63 445c2.21 0 4 1.79 4 4s-1.79 4-4 4-4-1.79-4-4 1.79-4 4-4M73.998 445A3.998 3.998 0 0 1 78 449c0 2.21-1.789 4-4.002 4A3.998 3.998 0 0 1 70 449c0-2.21 1.789-4 3.998-4M87 445c2.21 0 4 1.79 4 4s-1.79 4-4 4-4-1.79-4-4 1.79-4 4-4M98 445c2.21 0 4 1.79 4 4s-1.79 4-4 4-4-1.79-4-4 1.79-4 4-4M110 445c2.21 0 4 1.79 4 4s-1.79 4-4 4-4-1.79-4-4 1.79-4 4-4M121 445c2.21 0 4 1.79 4 4s-1.79 4-4 4-4-1.79-4-4 1.79-4 4-4M179.998 445a4.001 4.001 0 1 1 .002 8.002 4.001 4.001 0 0 1-.002-8.002M28 456c2.21 0 4 1.79 4 4s-1.79 4-4 4-4-1.79-4-4 1.79-4 4-4M40.002 456c2.21 0 3.998 1.79 3.998 4s-1.789 4-3.998 4a4.001 4.001 0 1 1 0-8M51 456c2.21 0 4 1.79 4 4s-1.79 4-4 4-4-1.79-4-4 1.79-4 4-4M63 456c2.21 0 4 1.79 4 4s-1.79 4-4 4-4-1.79-4-4 1.79-4 4-4M73.998 456A3.998 3.998 0 0 1 78 460c0 2.21-1.789 4-4.002 4A3.998 3.998 0 0 1 70 460c0-2.21 1.789-4 3.998-4M87 456c2.21 0 4 1.79 4 4s-1.79 4-4 4-4-1.79-4-4 1.79-4 4-4M98 456c2.21 0 4 1.79 4 4s-1.79 4-4 4-4-1.79-4-4 1.79-4 4-4M110 456c2.21 0 4 1.79 4 4s-1.79 4-4 4-4-1.79-4-4 1.79-4 4-4M121 456c2.21 0 4 1.79 4 4s-1.79 4-4 4-4-1.79-4-4 1.79-4 4-4M168 456c2.21 0 4 1.79 4 4s-1.79 4-4 4-4-1.79-4-4 1.79-4 4-4M179.998 456a4.001 4.001 0 1 1 .002 8.002 4.001 4.001 0 0 1-.002-8.002M28 468a4.001 4.001 0 1 1-.002 8.002A4.001 4.001 0 0 1 28 468M40.002 468a4 4 0 1 1-.004 8 4 4 0 0 1 .004-8M51 468a4.001 4.001 0 1 1-.002 8.002A4.001 4.001 0 0 1 51 468M63 468a4.001 4.001 0 1 1-.002 8.002A4.001 4.001 0 0 1 63 468M73.998 468a4 4 0 1 1 .002 8.002 4 4 0 0 1-.002-8.002M87 468a4.001 4.001 0 1 1-.002 8.002A4.001 4.001 0 0 1 87 468M98 468a4.001 4.001 0 1 1-.002 8.002A4.001 4.001 0 0 1 98 468M110 468a4.001 4.001 0 1 1-.002 8.002A4.001 4.001 0 0 1 110 468M121 468a4.001 4.001 0 1 1-.002 8.002A4.001 4.001 0 0 1 121 468M168 468a4.001 4.001 0 1 1-.002 8.002A4.001 4.001 0 0 1 168 468M40.002 480c2.21 0 3.998 1.79 3.998 4s-1.789 4-3.998 4a4.001 4.001 0 1 1 0-8M51 480c2.21 0 4 1.79 4 4s-1.79 4-4 4-4-1.79-4-4 1.79-4 4-4M63 480c2.21 0 4 1.79 4 4s-1.79 4-4 4-4-1.79-4-4 1.79-4 4-4M73.998 480A3.998 3.998 0 0 1 78 484c0 2.21-1.789 4-4.002 4A3.998 3.998 0 0 1 70 484c0-2.21 1.789-4 3.998-4M87 480c2.21 0 4 1.79 4 4s-1.79 4-4 4-4-1.79-4-4 1.79-4 4-4M98 480c2.21 0 4 1.79 4 4s-1.79 4-4 4-4-1.79-4-4 1.79-4 4-4M110 480c2.21 0 4 1.79 4 4s-1.79 4-4 4-4-1.79-4-4 1.79-4 4-4M121 480c2.21 0 4 1.79 4 4s-1.79 4-4 4-4-1.79-4-4 1.79-4 4-4M168 480c2.21 0 4 1.79 4 4s-1.79 4-4 4-4-1.79-4-4 1.79-4 4-4M40.002 492A3.997 3.997 0 0 1 44 495.998 4 4 0 1 1 40.002 492M51 492c2.21 0 4 1.789 4 3.998A3.998 3.998 0 0 1 51 500c-2.21 0-4-1.789-4-4.002 0-2.21 1.79-3.998 4-3.998M63 492c2.21 0 4 1.789 4 3.998A3.998 3.998 0 0 1 63 500c-2.21 0-4-1.789-4-4.002 0-2.21 1.79-3.998 4-3.998M73.998 492A3.997 3.997 0 0 1 78 495.998 3.998 3.998 0 0 1 73.998 500 3.997 3.997 0 0 1 70 495.998 3.997 3.997 0 0 1 73.998 492M87 492c2.21 0 4 1.789 4 3.998A3.998 3.998 0 0 1 87 500c-2.21 0-4-1.789-4-4.002 0-2.21 1.79-3.998 4-3.998M98 492c2.21 0 4 1.789 4 3.998A3.998 3.998 0 0 1 98 500c-2.21 0-4-1.789-4-4.002 0-2.21 1.79-3.998 4-3.998M110 492c2.21 0 4 1.789 4 3.998a3.998 3.998 0 0 1-4 4.002c-2.21 0-4-1.789-4-4.002 0-2.21 1.79-3.998 4-3.998M121 492c2.21 0 4 1.789 4 3.998a3.998 3.998 0 0 1-4 4.002c-2.21 0-4-1.789-4-4.002 0-2.21 1.79-3.998 4-3.998M133 492c2.21 0 4 1.789 4 3.998a3.998 3.998 0 0 1-4 4.002c-2.21 0-4-1.789-4-4.002 0-2.21 1.79-3.998 4-3.998M51 503c2.21 0 4 1.79 4 4s-1.79 4-4 4-4-1.79-4-4 1.79-4 4-4M63 503c2.21 0 4 1.79 4 4s-1.79 4-4 4-4-1.79-4-4 1.79-4 4-4M73.998 503A3.998 3.998 0 0 1 78 507c0 2.21-1.789 4-4.002 4A3.998 3.998 0 0 1 70 507c0-2.21 1.789-4 3.998-4M87 503c2.21 0 4 1.79 4 4s-1.79 4-4 4-4-1.79-4-4 1.79-4 4-4M98 503c2.21 0 4 1.79 4 4s-1.79 4-4 4-4-1.79-4-4 1.79-4 4-4M110 503c2.21 0 4 1.79 4 4s-1.79 4-4 4-4-1.79-4-4 1.79-4 4-4M121 503c2.21 0 4 1.79 4 4s-1.79 4-4 4-4-1.79-4-4 1.79-4 4-4M133 503c2.21 0 4 1.79 4 4s-1.79 4-4 4-4-1.79-4-4 1.79-4 4-4M40.002 515c2.21 0 3.998 1.79 3.998 4s-1.789 4-3.998 4a4.001 4.001 0 1 1 0-8M51 515c2.21 0 4 1.79 4 4s-1.79 4-4 4-4-1.79-4-4 1.79-4 4-4M63 515c2.21 0 4 1.79 4 4s-1.79 4-4 4-4-1.79-4-4 1.79-4 4-4M73.998 515A3.998 3.998 0 0 1 78 519c0 2.21-1.789 4-4.002 4A3.998 3.998 0 0 1 70 519c0-2.21 1.789-4 3.998-4M87 515c2.21 0 4 1.79 4 4s-1.79 4-4 4-4-1.79-4-4 1.79-4 4-4M98 515c2.21 0 4 1.79 4 4s-1.79 4-4 4-4-1.79-4-4 1.79-4 4-4M110 515c2.21 0 4 1.79 4 4s-1.79 4-4 4-4-1.79-4-4 1.79-4 4-4M121 515c2.21 0 4 1.79 4 4s-1.79 4-4 4-4-1.79-4-4 1.79-4 4-4M40.002 527c2.21 0 3.998 1.79 3.998 4s-1.789 4-3.998 4a4.001 4.001 0 1 1 0-8M51 527c2.21 0 4 1.79 4 4s-1.79 4-4 4-4-1.79-4-4 1.79-4 4-4M63 527c2.21 0 4 1.79 4 4s-1.79 4-4 4-4-1.79-4-4 1.79-4 4-4M73.998 527A3.998 3.998 0 0 1 78 531c0 2.21-1.789 4-4.002 4A3.998 3.998 0 0 1 70 531c0-2.21 1.789-4 3.998-4M87 527c2.21 0 4 1.79 4 4s-1.79 4-4 4-4-1.79-4-4 1.79-4 4-4M63 539c2.21 0 4 1.79 4 4s-1.79 4-4 4-4-1.79-4-4 1.79-4 4-4M73.998 539A3.998 3.998 0 0 1 78 543c0 2.21-1.789 4-4.002 4A3.998 3.998 0 0 1 70 543c0-2.21 1.789-4 3.998-4" fill="#808A94"/>
        <g transform="translate(47 550)">
            <mask id="d" fill="#fff">
                <use xlink:href="#c"/>
            </mask>
            <path d="M4 0a4.001 4.001 0 0 1 0 8.001A4.001 4.001 0 0 1 4 0" fill="#808A94" mask="url(#d)"/>
        </g>
        <g transform="translate(59 550)">
            <mask id="f" fill="#fff">
                <use xlink:href="#e"/>
            </mask>
            <path d="M4 0a4.001 4.001 0 0 1 0 8.001A4.001 4.001 0 0 1 4 0" fill="#808A94" mask="url(#f)"/>
        </g>
        <g transform="translate(70 550)">
            <mask id="h" fill="#fff">
                <use xlink:href="#g"/>
            </mask>
            <path d="M8 4.003A3.998 3.998 0 0 1 3.998 8 3.997 3.997 0 0 1 0 4.003a4 4 0 1 1 8 0z" fill="#808A94" mask="url(#h)"/>
        </g>
        <path d="M156.5 367c6.352 0 11.5 5.152 11.5 11.5 0 6.352-5.148 11.5-11.5 11.5-6.348 0-11.5-5.148-11.5-11.5 0-6.348 5.152-11.5 11.5-11.5M51.5 531c6.352 0 11.5 5.148 11.5 11.5S57.852 554 51.5 554c-6.348 0-11.5-5.148-11.5-11.5S45.152 531 51.5 531M109.5 320c6.352 0 11.5 5.148 11.5 11.5 0 6.348-5.148 11.5-11.5 11.5S98 337.848 98 331.5c0-6.352 5.148-11.5 11.5-11.5M156.5 192c6.352 0 11.5 5.148 11.5 11.5s-5.148 11.5-11.5 11.5c-6.348 0-11.5-5.148-11.5-11.5s5.152-11.5 11.5-11.5M179.5 121c6.352 0 11.5 5.148 11.5 11.5 0 6.348-5.148 11.5-11.5 11.5-6.348 0-11.5-5.152-11.5-11.5 0-6.352 5.152-11.5 11.5-11.5M30.5 447c6.352 0 11.5 5.152 11.5 11.5 0 6.352-5.148 11.5-11.5 11.5-6.348 0-11.5-5.148-11.5-11.5 0-6.348 5.152-11.5 11.5-11.5" fill="#73160F"/>
    </g>
</svg>
