<svg xmlns="http://www.w3.org/2000/svg" width="18" height="18" viewBox="0 0 18 18">
    <g fill="none" fill-rule="evenodd">
        <g fill="#000" fill-rule="nonzero">
            <g>
                <path d="M3.19 6.546c.852 0 1.653-.34 2.255-.959.177-.181.33-.38.456-.59l5.706 5.857c.095.097.219.146.343.146.125 0 .249-.049.344-.146.19-.195.19-.51 0-.705l-1.601-1.643 1.394-1.431.76.78c.095.098.22.146.344.146.124 0 .249-.048.344-.146L17.4 3.887c.799-.82.799-2.153 0-2.972-.386-.397-.9-.615-1.447-.615s-1.061.218-1.448.615l-3.867 3.969c-.09.093-.142.22-.142.352 0 .133.051.26.142.353l.76.78-1.393 1.432-3.707-3.805c.233-1.059-.052-2.215-.854-3.037C4.843.34 4.042 0 3.19 0c-.412 0-.814.08-1.195.238C1.844.3 1.734.437 1.701.6c-.033.164.017.333.133.452L3.15 2.404l-.048.779-.759.049-1.316-1.351c-.116-.119-.281-.17-.44-.136-.16.033-.293.146-.354.302-.48 1.22-.204 2.61.702 3.54.603.619 1.403.959 2.255.959zm11.66-4.573l1.52 1.561-1.969 2.022-1.521-1.562 1.97-2.021zm1.864-.353c.296.304.383.742.262 1.125l-1.358-1.393c.107-.036.22-.055.336-.055.287 0 .557.115.76.323zM12.193 4.7l1.521 1.56-.523.538-1.521-1.562.523-.537zM.973 3.234l.839.861c.098.102.234.154.374.145l1.405-.09c.244-.016.439-.216.454-.467l.089-1.442c.008-.143-.043-.283-.142-.384l-.838-.86h.036c.593 0 1.15.236 1.568.666.865.887.865 2.33 0 3.218-.419.43-.975.667-1.568.667-.592 0-1.149-.237-1.568-.667-.434-.445-.66-1.042-.65-1.647z" transform="translate(-1404.000000, -74.000000) translate(1404.000000, 74.000000)"/>
                <path d="M17.065 12.403c-.602-.619-1.403-.96-2.255-.96-.852 0-1.653.341-2.255.96-.176.18-.328.379-.456.59l-3.755-3.86-.005-.006-.007-.006-1.92-1.975c-.19-.195-.497-.195-.687 0-.19.195-.19.512 0 .707L7.308 9.48l-3.291 3.384-1.273-.159c-.148-.018-.296.034-.402.143l-1.126 1.158c-.19.195-.19.51 0 .706.19.195.498.195.687 0l.96-.986.894.111.108.92-1.69 1.737L.83 15.11c-.19-.195-.497-.195-.687 0-.19.195-.19.511 0 .706l1.69 1.738c.091.093.215.146.344.146.128 0 .252-.053.343-.146l2.2-2.263c.106-.108.157-.26.139-.413l-.154-1.308 3.29-3.384 3.705 3.809c-.051.236-.078.479-.078.727 0 .875.332 1.699.934 2.318.602.619 1.403.96 2.255.96.412 0 .814-.08 1.195-.238.151-.063.262-.2.294-.364.033-.164-.017-.334-.132-.452l-1.317-1.354.048-.78.759-.05 1.316 1.354c.116.119.281.17.44.136.16-.033.293-.147.354-.302.48-1.222.204-2.615-.702-3.547zm-.037 2.357l-.84-.863c-.098-.102-.234-.154-.374-.145l-1.405.09c-.244.016-.438.217-.454.468l-.088 1.444c-.01.143.042.283.14.385l.84.862h-.037c-.592 0-1.15-.237-1.568-.667-.419-.431-.65-1.004-.65-1.612 0-.61.231-1.182.65-1.613.419-.43.976-.667 1.568-.667.592 0 1.15.237 1.568.667.434.447.66 1.044.65 1.65z" transform="translate(-1404.000000, -74.000000) translate(1404.000000, 74.000000)"/>
                <path d="M13.734 11.126c-.168-.168-.44-.168-.608 0-.168.168-.168.44 0 .608l.14.14c.084.084.194.126.304.126.11 0 .22-.042.304-.126.168-.168.168-.44 0-.608l-.14-.14zM4.126 6.126c-.168.168-.168.44 0 .609l.14.139c.084.084.194.126.304.126.11 0 .22-.042.304-.126.168-.168.168-.44 0-.609l-.14-.139c-.168-.168-.44-.168-.608 0z" transform="translate(-1404.000000, -74.000000) translate(1404.000000, 74.000000)"/>
            </g>
        </g>
    </g>
</svg>
